<svg xmlns="http://www.w3.org/2000/svg" viewBox="0 0 441 435"><defs><style>.a9ff1e93-9336-480a-851c-3be7c3b271c3{fill:#fff;}</style></defs><title>Sin título-1</title><g id="b348fed7-5e80-43cd-8d7c-9c860fd6af07" data-name="Capa 3"><path class="a9ff1e93-9336-480a-851c-3be7c3b271c3" d="M221.69,46.33c5.85,0,99.44,167.7,107.24,185.25s19.5,40.95,5.85,85.8S291.89,420.73,225.59,420.73s-101.4-56.55-115-91.65-5.85-66.3,0-87.75S213.89,46.33,221.69,46.33Z"/><path class="a9ff1e93-9336-480a-851c-3be7c3b271c3" d="M70.56,25.85c3.9,0,46.8,79.95,48.75,87.75s7.8,76.05-52.65,76.05c-52.65,0-46.8-70.2-44.85-76.05S66.66,25.85,70.56,25.85Z"/><path class="a9ff1e93-9336-480a-851c-3be7c3b271c3" d="M378.66,25.85c3.9,0,46.8,79.95,48.75,87.75s7.8,76.05-52.65,76.05c-52.65,0-46.8-70.2-44.85-76.05S374.76,25.85,378.66,25.85Z"/></g></svg>