<svg xmlns="http://www.w3.org/2000/svg" viewBox="0 0 481 470"><defs><style>.fa57445c-a0d4-4933-a6c2-044f7b063930{fill:#fff;}</style></defs><title>Sin título-1</title><g id="b97e3f8d-de13-4813-85b1-742146c32893" data-name="Capa 3"><circle class="fa57445c-a0d4-4933-a6c2-044f7b063930" cx="272.76" cy="421.3" r="23.4"/><circle class="fa57445c-a0d4-4933-a6c2-044f7b063930" cx="179.16" cy="314.05" r="23.4"/><circle class="fa57445c-a0d4-4933-a6c2-044f7b063930" cx="284.46" cy="132.7" r="23.4"/><circle class="fa57445c-a0d4-4933-a6c2-044f7b063930" cx="214.26" cy="33.25" r="23.4"/><circle class="fa57445c-a0d4-4933-a6c2-044f7b063930" cx="122.61" cy="72.25" r="23.4"/><circle class="fa57445c-a0d4-4933-a6c2-044f7b063930" cx="62.16" cy="146.35" r="23.4"/><circle class="fa57445c-a0d4-4933-a6c2-044f7b063930" cx="42.66" cy="238" r="23.4"/><circle class="fa57445c-a0d4-4933-a6c2-044f7b063930" cx="362.46" cy="382.3" r="23.4"/><circle class="fa57445c-a0d4-4933-a6c2-044f7b063930" cx="424.86" cy="308.2" r="23.4"/><circle class="fa57445c-a0d4-4933-a6c2-044f7b063930" cx="442.41" cy="218.5" r="23.4"/><circle class="fa57445c-a0d4-4933-a6c2-044f7b063930" cx="245.46" cy="234.1" r="46.8"/><path class="fa57445c-a0d4-4933-a6c2-044f7b063930" d="M71.92,335.5a5.86,5.86,0,0,1-5.18-3.11C66,331,48.64,297.8,42.23,251.72c-8.54-61.4,7-116,44.84-158,48.09-53.32,105.85-67.45,145.84-69.92,42.77-2.64,77.42,7.11,83.42,10.11a5.85,5.85,0,1,1-5.23,10.46c-3.12-1.52-35.49-11.54-77.71-8.88-37.75,2.37-92.26,15.76-137.63,66.07-35.91,39.81-50,89.68-42,148.23,6.06,44.11,23.14,76.84,23.31,77.17a5.85,5.85,0,0,1-5.16,8.58Z"/><path class="fa57445c-a0d4-4933-a6c2-044f7b063930" d="M243.85,429.67c-30.4,0-57-6.13-75.75-10.47a5.85,5.85,0,1,1,2.63-11.4c18,4.14,43.39,10,72.45,10,46.52,0,102.34-15,151.78-76.24,32.8-40.61,45-89.46,36.37-145.18-6.53-41.95-23.12-72.25-23.28-72.55a5.85,5.85,0,0,1,10.23-5.68c.71,1.29,17.64,32.12,24.55,76,9.19,58.45-4.21,112-38.77,154.74C351.69,413.77,292.79,429.66,243.85,429.67Z"/><path class="fa57445c-a0d4-4933-a6c2-044f7b063930" d="M136.26,238h-.12a3.91,3.91,0,0,1-3.78-4c.07-2.28,2.14-56.4,42.29-89.46,26.42-21.77,62.93-29,108.49-21.52a3.9,3.9,0,0,1-1.26,7.7c-43.22-7.1-77.61-.45-102.22,19.79-37.42,30.77-39.48,83.2-39.5,83.73A3.91,3.91,0,0,1,136.26,238Z"/><path class="fa57445c-a0d4-4933-a6c2-044f7b063930" d="M247.88,345.17c-42.8,0-72.6-21.84-73-22.15a3.9,3.9,0,1,1,4.68-6.24h0c.53.39,53.65,39.14,118.89,9.32C363.16,296.52,351,227.72,350.83,227a3.9,3.9,0,1,1,7.66-1.45c.15.75,13.41,75.52-56.81,107.62A128.39,128.39,0,0,1,247.88,345.17Z"/></g></svg>