<svg id="e8926baa-eba8-46a6-9fec-3965ef3d4acf" data-name="Capa 2" xmlns="http://www.w3.org/2000/svg" viewBox="0 0 516 498"><defs><style>.b0c49e85-ff87-47b7-baa2-951bd52cc39c,.f2d5b576-1dc3-4773-9ad3-af53f1b152bc{fill:none;stroke:#8c705d;stroke-miterlimit:10;stroke-width:2px;}.f2d5b576-1dc3-4773-9ad3-af53f1b152bc{stroke-linecap:round;stroke-dasharray:1 10;}</style></defs><title>Sin título-1</title><path class="b0c49e85-ff87-47b7-baa2-951bd52cc39c" d="M134.79,156,260.27,84.44s8.58-14.53,7.51-31.12-5.9-24.37-8-24.37-7.51,9.33-7.51,25.93c0,19.7,10.19,30.59,10.19,30.59l124.41,68.46v195l-127.09,70a51.67,51.67,0,0,0-7,25.41c0,14.52,6.43,25.93,8.58,25.93s7-11.93,7-25.41-3.76-22.3-5.9-24.37L135.86,347.88Z"/><circle class="f2d5b576-1dc3-4773-9ad3-af53f1b152bc" cx="264.96" cy="246.76" r="231.81"/><circle class="b0c49e85-ff87-47b7-baa2-951bd52cc39c" cx="104.71" cy="251.42" r="30.6"/><circle class="b0c49e85-ff87-47b7-baa2-951bd52cc39c" cx="102.64" cy="250.39" r="55.49"/><circle class="b0c49e85-ff87-47b7-baa2-951bd52cc39c" cx="417.95" cy="251.42" r="30.6"/><circle class="b0c49e85-ff87-47b7-baa2-951bd52cc39c" cx="415.87" cy="250.39" r="55.49"/><polygon class="b0c49e85-ff87-47b7-baa2-951bd52cc39c" points="262.88 267.5 324.47 120.41 314.75 84.95 211.03 84.95 197.54 121.26 262.88 267.5"/><polygon class="b0c49e85-ff87-47b7-baa2-951bd52cc39c" points="262.88 230.16 200.01 381.78 209.99 417.89 313.71 417.89 326.46 382.28 262.88 230.16"/></svg>