<svg xmlns="http://www.w3.org/2000/svg" viewBox="0 0 495 487"><defs><style>.baf43eaf-c0e9-47c4-a5ad-bca425d04012{fill:#fff;}</style></defs><title>Sin título-1</title><g id="beb27ffd-a8e1-403c-89e2-bfa2e1ff1b9c" data-name="Capa 3"><path class="baf43eaf-c0e9-47c4-a5ad-bca425d04012" d="M234.93,53l-44-27.24a5.85,5.85,0,0,1,6.16-9.94L235,39.29l41.78-25.44a5.85,5.85,0,1,1,6.08,10Z"/><path class="baf43eaf-c0e9-47c4-a5ad-bca425d04012" d="M234.14,112.45a5.85,5.85,0,0,1-5.85-5.85V46.15a5.85,5.85,0,0,1,11.7,0V106.6A5.85,5.85,0,0,1,234.14,112.45Z"/><path class="baf43eaf-c0e9-47c4-a5ad-bca425d04012" d="M197.1,457.6a5.85,5.85,0,0,1-3-10.85L242,417.59l44,27.24a5.85,5.85,0,1,1-6.16,9.94l-37.89-23.46-41.79,25.44A5.8,5.8,0,0,1,197.1,457.6Z"/><path class="baf43eaf-c0e9-47c4-a5ad-bca425d04012" d="M242.76,430.3a5.85,5.85,0,0,1-5.85-5.85V364a5.85,5.85,0,0,1,11.7,0v60.45A5.85,5.85,0,0,1,242.76,430.3Z"/><path class="baf43eaf-c0e9-47c4-a5ad-bca425d04012" d="M66.56,130.78a5.85,5.85,0,0,1-2.36-11.2l40.78-18,2.66-48.85a5.85,5.85,0,0,1,11.68.64l-3,56L68.92,130.28A5.82,5.82,0,0,1,66.56,130.78Z"/><path class="baf43eaf-c0e9-47c4-a5ad-bca425d04012" d="M160,146.22a5.9,5.9,0,0,1-3.31-1L106.85,111a5.85,5.85,0,0,1,6.62-9.65l49.85,34.19A5.85,5.85,0,0,1,160,146.22Z"/><path class="baf43eaf-c0e9-47c4-a5ad-bca425d04012" d="M421.9,125.5a5.62,5.62,0,0,1-1.66-.25l-53.79-15.91-9.37-50.9a5.85,5.85,0,0,1,11.5-2.12l8.07,43.84L423.56,114a5.86,5.86,0,0,1-1.66,11.47Z"/><path class="baf43eaf-c0e9-47c4-a5ad-bca425d04012" d="M326.21,150.59a5.85,5.85,0,0,1-3.93-10.18l44.79-40.6a5.85,5.85,0,0,1,7.86,8.67l-44.79,40.6A5.84,5.84,0,0,1,326.21,150.59Z"/><path class="baf43eaf-c0e9-47c4-a5ad-bca425d04012" d="M373,415.79h-.32a5.84,5.84,0,0,1-5.52-6.16l3.05-56,47.35-20.88a5.85,5.85,0,0,1,4.72,10.7l-40.78,18-2.66,48.84A5.85,5.85,0,0,1,373,415.79Z"/><path class="baf43eaf-c0e9-47c4-a5ad-bca425d04012" d="M376.34,362.69a5.84,5.84,0,0,1-3.3-1l-49.85-34.19a5.85,5.85,0,1,1,6.61-9.65L379.66,352a5.85,5.85,0,0,1-3.32,10.68Z"/><path class="baf43eaf-c0e9-47c4-a5ad-bca425d04012" d="M123.67,411.48a5.83,5.83,0,0,1-5.74-4.79l-8.08-43.84L63,349a5.85,5.85,0,1,1,3.32-11.22l53.79,15.91,9.37,50.9a5.84,5.84,0,0,1-4.69,6.81A5.61,5.61,0,0,1,123.67,411.48Z"/><path class="baf43eaf-c0e9-47c4-a5ad-bca425d04012" d="M115.51,364.72a5.85,5.85,0,0,1-3.93-10.18l44.79-40.6a5.84,5.84,0,1,1,7.85,8.66l-44.78,40.6A5.82,5.82,0,0,1,115.51,364.72Z"/><path class="baf43eaf-c0e9-47c4-a5ad-bca425d04012" d="M453.69,286.2a5.84,5.84,0,0,1-5-2.78L419.2,235.71l26.93-44.19a5.85,5.85,0,0,1,10,6.09l-23.19,38.06,25.73,41.6a5.86,5.86,0,0,1-5,8.93Z"/><path class="baf43eaf-c0e9-47c4-a5ad-bca425d04012" d="M365.61,241.15a5.85,5.85,0,0,1,0-11.7L426,229h0a5.85,5.85,0,0,1,0,11.7l-60.45.43Z"/><path class="baf43eaf-c0e9-47c4-a5ad-bca425d04012" d="M38.33,288.75a5.84,5.84,0,0,1-5-8.89L56.53,241.8,30.8,200.2a5.85,5.85,0,1,1,10-6.16l29.51,47.71L43.33,286A5.84,5.84,0,0,1,38.33,288.75Z"/><path class="baf43eaf-c0e9-47c4-a5ad-bca425d04012" d="M63.4,248.44a5.85,5.85,0,0,1,0-11.7l60.45-.42h0a5.85,5.85,0,0,1,0,11.7l-60.45.42Z"/><path class="baf43eaf-c0e9-47c4-a5ad-bca425d04012" d="M244.71,395.2c-88.17,0-159.9-71.73-159.9-159.9S156.54,75.4,244.71,75.4s159.9,71.73,159.9,159.9S332.88,395.2,244.71,395.2Zm0-312c-83.87,0-152.1,68.23-152.1,152.1s68.23,152.1,152.1,152.1,152.1-68.23,152.1-152.1S328.58,83.2,244.71,83.2Z"/><path class="baf43eaf-c0e9-47c4-a5ad-bca425d04012" d="M275.21,191.43a2.93,2.93,0,0,1-2.93-2.93V83.82a2.93,2.93,0,0,1,5.85,0V188.5A2.93,2.93,0,0,1,275.21,191.43Z"/><path class="baf43eaf-c0e9-47c4-a5ad-bca425d04012" d="M196.94,196.3H93.59a2.93,2.93,0,1,1,0-5.85H196.94a2.93,2.93,0,0,1,0,5.85Z"/><path class="baf43eaf-c0e9-47c4-a5ad-bca425d04012" d="M200.33,385.33a2.93,2.93,0,0,1-2.93-2.92V283.08a2.93,2.93,0,1,1,5.85,0v99.33A2.92,2.92,0,0,1,200.33,385.33Z"/><path class="baf43eaf-c0e9-47c4-a5ad-bca425d04012" d="M387.53,299.65H286.64a2.93,2.93,0,1,1,0-5.85H387.53a2.93,2.93,0,0,1,0,5.85Z"/></g></svg>