<svg xmlns="http://www.w3.org/2000/svg" viewBox="0 0 432 438"><defs><style>.a572a1be-48af-4f4b-a92c-68f5a2d4ea32{fill:#fff;}</style></defs><title>Sin título-1</title><g id="add7a3c7-5c72-4dff-8927-1d36f13fd8ee" data-name="Capa 3"><path class="a572a1be-48af-4f4b-a92c-68f5a2d4ea32" d="M78.2,64.57a67,67,0,1,0,67.05,67.05A67,67,0,0,0,78.2,64.57ZM59,151.63q-3.64,3.17-10.43,3.17a23.72,23.72,0,0,1-7.54-1.12,18.87,18.87,0,0,1-5.25-2.56c-1.28-1-1.92-1.7-1.92-2.21,0-.77.43-1.15,1.28-1.15q4.74,5.06,13,5.05c4,0,7-.85,9-2.56A8.93,8.93,0,0,0,60.24,143,9.37,9.37,0,0,0,59,138.1a11.44,11.44,0,0,0-4-3.74,36.8,36.8,0,0,0-7.48-3.29q-6.64-2.31-9.4-5a9.48,9.48,0,0,1-2.75-7c0-3.32,1.06-5.87,3.2-7.64s5.16-2.65,9.08-2.65a21,21,0,0,1,7,1.12,17.75,17.75,0,0,1,5.06,2.55c1.23,1,1.85,1.7,1.85,2.21,0,.77-.42,1.15-1.28,1.15A15.76,15.76,0,0,0,54.94,112,17.83,17.83,0,0,0,48,110.73q-4.86,0-7.52,2.17a7.36,7.36,0,0,0-2.65,6,7.25,7.25,0,0,0,2.56,5.66q2.55,2.27,8.82,4.5a38,38,0,0,1,7.9,3.71,12.64,12.64,0,0,1,4.22,4.26,11.17,11.17,0,0,1,1.31,5.59Q62.67,148.46,59,151.63Zm14.65.54c0,1.5-.54,2.24-1.6,2.24a1.65,1.65,0,0,1-.83-.25V111.37c0-1.49.53-2.24,1.59-2.24a1.73,1.73,0,0,1,.84.26Zm41.31-.32c0,1.71-.7,2.56-2.11,2.56a2.42,2.42,0,0,1-1.09-.25L87.23,112.78v39.39c0,1.5-.53,2.24-1.6,2.24a1.7,1.7,0,0,1-.83-.25V111.69c0-1.71.71-2.56,2.11-2.56a2.4,2.4,0,0,1,1.09.26l24.56,41.38v-39.4c0-1.49.53-2.24,1.6-2.24a1.73,1.73,0,0,1,.83.26Z"/><path class="a572a1be-48af-4f4b-a92c-68f5a2d4ea32" d="M227.76,31.05A195,195,0,0,0,121,62.71,82.51,82.51,0,0,1,33.37,202.49,198.72,198.72,0,0,0,31.79,227c0,108.23,87.74,196,196,196s196-87.74,196-196S336,31.05,227.76,31.05ZM177.42,288.81a5.43,5.43,0,0,1-2.18.41,3.68,3.68,0,0,1-3.21-1.65l-26-35.25-9.53,11.51V285.6c0,2.42-.87,3.62-2.59,3.62a2.79,2.79,0,0,1-1.35-.41V219.46q0-3.63,2.59-3.63a2.76,2.76,0,0,1,1.35.42v42l33.27-40.32a5.11,5.11,0,0,1,4-2,6.11,6.11,0,0,1,2,.31l-28.92,35a3.56,3.56,0,0,1,1-.11,3.48,3.48,0,0,1,1.92.57,7.05,7.05,0,0,1,1.81,1.92l22.81,31.2c1.31,1.94,2.31,3,3,3.32Zm8.71-18.24a26.81,26.81,0,0,0,9.8,11.86,26.39,26.39,0,0,0,14.87,4.2,29.49,29.49,0,0,0,11.35-2.12,25.52,25.52,0,0,0,8.86-6.07c1.38,0,2.08.62,2.08,1.87q0,1.24-3,3.58a28.83,28.83,0,0,1-7.88,4.14,30.45,30.45,0,0,1-10.62,1.82,32.71,32.71,0,0,1-17.41-4.56,30,30,0,0,1-11.51-13,50.3,50.3,0,0,1,0-39.5,30,30,0,0,1,11.51-13,32.71,32.71,0,0,1,17.41-4.56A30.45,30.45,0,0,1,222.25,217a28.83,28.83,0,0,1,7.88,4.14q3,2.34,3,3.58c0,1.24-.7,1.87-2.08,1.87a25.52,25.52,0,0,0-8.86-6.07,29.31,29.31,0,0,0-11.35-2.12,26.46,26.46,0,0,0-14.87,4.19,26.89,26.89,0,0,0-9.8,11.87,49.29,49.29,0,0,0,0,36.08Zm106.56,18.86-8.5-24.15H253.61l-7.46,21.15c-.69,2-1.66,3-2.9,3a3.36,3.36,0,0,1-1.87-.62l24.36-69.56a7.8,7.8,0,0,1,1.55-2.79,2.8,2.8,0,0,1,2.08-.83,3.83,3.83,0,0,1,1.55.31l24.36,69.66a5.21,5.21,0,0,1,.31,1.65C295.59,288.71,294.62,289.43,292.69,289.43Zm51.67-1.14a4,4,0,0,1-2.23.52H305.75l-.62-1.35a23.3,23.3,0,0,0,2.12-7.15,82.87,82.87,0,0,0,.57-11V219.46q0-3.63,2.59-3.63a2.7,2.7,0,0,1,1.35.42v53.07q0,11.31-1.86,16.17h34.93a2.75,2.75,0,0,1,.31,1.25A1.73,1.73,0,0,1,344.36,288.29Z"/><polygon class="a572a1be-48af-4f4b-a92c-68f5a2d4ea32" points="254.75 261.96 283.05 261.96 268.85 221.53 254.75 261.96"/></g></svg>