<svg id="a3b17374-fb81-4808-a304-0c3fc209a5bf" data-name="Capa 2" xmlns="http://www.w3.org/2000/svg" viewBox="0 0 1926 749"><defs><style>.abdf5aba-b396-4836-8b8d-78cb71795539,.ad06d548-d207-4f85-9da8-3298c325fc50,.b7fed20d-acd4-49f7-b369-fac21db8e4ed,.ba17fa1e-666c-4f37-b7b0-1d102c13e110,.bed635da-e217-40b1-bdaa-f756a6d3c039,.bedf78b2-e2f6-48d4-be63-371dfad64dd1,.e709b310-65dd-4f7c-abfd-35dc65414046,.f1d66033-494a-476c-86f6-1e289120fb28{fill:none;stroke-miterlimit:10;}.abdf5aba-b396-4836-8b8d-78cb71795539,.bedf78b2-e2f6-48d4-be63-371dfad64dd1,.f1d66033-494a-476c-86f6-1e289120fb28{stroke:#c4a68d;}.abdf5aba-b396-4836-8b8d-78cb71795539,.b7fed20d-acd4-49f7-b369-fac21db8e4ed,.e709b310-65dd-4f7c-abfd-35dc65414046{stroke-linecap:round;}.abdf5aba-b396-4836-8b8d-78cb71795539{stroke-width:3px;stroke-dasharray:1 10;}.bedf78b2-e2f6-48d4-be63-371dfad64dd1{stroke-width:9px;}.f6578e74-7e8b-4c77-862c-f47149ec2247{fill:#8c705d;}.ad06d548-d207-4f85-9da8-3298c325fc50,.b7fed20d-acd4-49f7-b369-fac21db8e4ed,.ba17fa1e-666c-4f37-b7b0-1d102c13e110,.bed635da-e217-40b1-bdaa-f756a6d3c039,.e709b310-65dd-4f7c-abfd-35dc65414046{stroke:#8c705d;}.bed635da-e217-40b1-bdaa-f756a6d3c039{stroke-width:5px;}.ad06d548-d207-4f85-9da8-3298c325fc50{stroke-width:6px;}.b7fed20d-acd4-49f7-b369-fac21db8e4ed,.e709b310-65dd-4f7c-abfd-35dc65414046{stroke-width:4px;}.b7fed20d-acd4-49f7-b369-fac21db8e4ed{stroke-dasharray:0.97 9.67;}.ba17fa1e-666c-4f37-b7b0-1d102c13e110{stroke-width:12px;}</style></defs><title>Sin título-1</title><path class="f1d66033-494a-476c-86f6-1e289120fb28" d="M178.79,218l125.48-71.56s8.58-14.53,7.51-31.12-5.9-24.37-8-24.37-7.51,9.33-7.51,25.93c0,19.7,10.19,30.59,10.19,30.59l124.41,68.46v195l-127.09,70a51.67,51.67,0,0,0-7,25.41c0,14.52,6.43,25.93,8.58,25.93s7-11.93,7-25.41-3.76-22.3-5.9-24.37L179.86,409.88Z"/><circle class="abdf5aba-b396-4836-8b8d-78cb71795539" cx="308.96" cy="308.76" r="231.81"/><rect class="bedf78b2-e2f6-48d4-be63-371dfad64dd1" x="98.58" y="100.45" width="418.04" height="418.04" transform="translate(308.92 -126.86) rotate(45)"/><circle class="f1d66033-494a-476c-86f6-1e289120fb28" cx="148.71" cy="313.42" r="30.6"/><circle class="f1d66033-494a-476c-86f6-1e289120fb28" cx="146.64" cy="312.39" r="55.49"/><circle class="f1d66033-494a-476c-86f6-1e289120fb28" cx="461.95" cy="313.42" r="30.6"/><circle class="f1d66033-494a-476c-86f6-1e289120fb28" cx="459.87" cy="312.39" r="55.49"/><path class="f6578e74-7e8b-4c77-862c-f47149ec2247" d="M551.14,687.85s28-196,30.08-196S658,675.4,658,675.4h8.29s83-183.58,85.05-183.58,29,195,29,195h15.56L760.66,456.56H750.29s-84,190.84-87.13,190.84S583.3,455.52,583.3,455.52H570.85l-36.3,232.33Z"/><rect class="f6578e74-7e8b-4c77-862c-f47149ec2247" x="859.19" y="457.59" width="14.52" height="231.29"/><rect class="f6578e74-7e8b-4c77-862c-f47149ec2247" x="1319.71" y="457.59" width="14.52" height="231.29"/><rect class="f6578e74-7e8b-4c77-862c-f47149ec2247" x="1419.28" y="457.59" width="14.52" height="231.29"/><path class="f6578e74-7e8b-4c77-862c-f47149ec2247" d="M1056.26,479.38s-15.56-10.38-55-10.38C979,469,965,479.89,965,510.49c0,39.93,100.6,69,100.6,115.13,0,41.49-18.67,66.38-63.27,66.38s-67.41-18.67-67.41-18.67l6.74-10.89S958.24,677,1000.77,677s48.75-23.85,48.75-45.64c0-46.67-102.69-70.53-102.69-128.61,0-31.11,28-47.71,59.12-47.71a161.39,161.39,0,0,1,56,10.37Z"/><rect class="f6578e74-7e8b-4c77-862c-f47149ec2247" x="1098.78" y="457.59" width="171.14" height="13.48"/><rect class="f6578e74-7e8b-4c77-862c-f47149ec2247" x="1175.54" y="462.78" width="15.56" height="225.07"/><rect class="f6578e74-7e8b-4c77-862c-f47149ec2247" x="1209.76" y="486.64" width="6.22" height="200.18"/><path class="f6578e74-7e8b-4c77-862c-f47149ec2247" d="M1440,568.57c0,3.12,79.86,95.43,91.27,104.76s28,16.6,42.53,16.6h19.71s83-205.37,84-205.37,84,202.25,84,202.25h18.67l-97.5-229.22h-8.29l-92.31,220.93s-12.45,4.15-31.12-9.34-92.31-96.46-92.31-98.53,97.5-111,97.5-111h-19.71Z"/><rect class="f6578e74-7e8b-4c77-862c-f47149ec2247" x="1622.57" y="594.5" width="112.02" height="12.45"/><circle class="bed635da-e217-40b1-bdaa-f756a6d3c039" cx="866.19" cy="423.37" r="11.15"/><polygon class="f6578e74-7e8b-4c77-862c-f47149ec2247" points="1311.93 408.33 1325.41 379.29 1338.89 407.29 1326.45 437.37 1311.93 408.33"/><rect class="ad06d548-d207-4f85-9da8-3298c325fc50" x="1696.63" y="325.79" width="138.27" height="138.27" transform="translate(-6.12 761.4) rotate(-24.29)"/><polyline class="e709b310-65dd-4f7c-abfd-35dc65414046" points="1906.79 347.1 1907 347.56 1906.54 347.76"/><line class="b7fed20d-acd4-49f7-b369-fac21db8e4ed" x1="1897.73" y1="351.74" x2="1785.84" y2="402.24"/><polyline class="e709b310-65dd-4f7c-abfd-35dc65414046" points="1781.43 404.23 1780.98 404.44 1780.77 403.98"/><line class="b7fed20d-acd4-49f7-b369-fac21db8e4ed" x1="1776.79" y1="395.17" x2="1726.29" y2="283.28"/><polyline class="e709b310-65dd-4f7c-abfd-35dc65414046" points="1724.3 278.87 1724.09 278.42 1724.55 278.21"/><line class="b7fed20d-acd4-49f7-b369-fac21db8e4ed" x1="1733.36" y1="274.23" x2="1845.26" y2="223.73"/><polyline class="e709b310-65dd-4f7c-abfd-35dc65414046" points="1849.66 221.74 1850.12 221.53 1850.32 221.99"/><line class="b7fed20d-acd4-49f7-b369-fac21db8e4ed" x1="1854.3" y1="230.8" x2="1904.81" y2="342.69"/><circle class="f6578e74-7e8b-4c77-862c-f47149ec2247" cx="473.87" cy="438.41" r="10.89"/><circle class="f6578e74-7e8b-4c77-862c-f47149ec2247" cx="139.9" cy="438.41" r="10.89"/><circle class="f6578e74-7e8b-4c77-862c-f47149ec2247" cx="191.76" cy="131.4" r="10.89"/><circle class="f6578e74-7e8b-4c77-862c-f47149ec2247" cx="424.09" cy="131.4" r="10.89"/><polygon class="f1d66033-494a-476c-86f6-1e289120fb28" points="306.88 329.5 368.47 182.41 358.75 146.95 255.03 146.95 241.54 183.26 306.88 329.5"/><polygon class="f1d66033-494a-476c-86f6-1e289120fb28" points="306.88 292.16 244.01 443.78 253.99 479.89 357.71 479.89 370.46 444.28 306.88 292.16"/><rect class="f1d66033-494a-476c-86f6-1e289120fb28" x="91.15" y="89.91" width="426.29" height="440.81"/><polyline class="ba17fa1e-666c-4f37-b7b0-1d102c13e110" points="138.86 437.37 191.76 143.84 306.88 421.81 424.09 142.81 472.84 438.41"/></svg>